<?xml version="1.0" encoding="utf-8"?>
<svg xmlns="http://www.w3.org/2000/svg" viewBox="0 0 26 26" width="52" height="52">
  <path d="M21.125 0L4.875 0C2.183594 0 0 2.183594 0 4.875L0 21.125C0 23.816406 2.183594 26 4.875 26L21.125 26C23.816406 26 26 23.816406 26 21.125L26 4.875C26 2.183594 23.816406 0 21.125 0 Z M 8.039063 22.070313L4 22.070313L3.976563 9.976563L8.015625 9.976563 Z M 5.917969 8.394531L5.894531 8.394531C4.574219 8.394531 3.722656 7.484375 3.722656 6.351563C3.722656 5.191406 4.601563 4.3125 5.945313 4.3125C7.289063 4.3125 8.113281 5.191406 8.140625 6.351563C8.140625 7.484375 7.285156 8.394531 5.917969 8.394531 Z M 22.042969 22.070313L17.96875 22.070313L17.96875 15.5C17.96875 13.910156 17.546875 12.828125 16.125 12.828125C15.039063 12.828125 14.453125 13.558594 14.171875 14.265625C14.066406 14.519531 14.039063 14.867188 14.039063 15.222656L14.039063 22.070313L9.945313 22.070313L9.921875 9.976563L14.015625 9.976563L14.039063 11.683594C14.5625 10.875 15.433594 9.730469 17.519531 9.730469C20.105469 9.730469 22.039063 11.417969 22.039063 15.046875L22.039063 22.070313Z" fill="#808080" />
</svg>